<?xml version="1.0" standalone="no"?>
<!DOCTYPE svg PUBLIC "-//W3C//DTD SVG 20010904//EN"
 "http://www.w3.org/TR/2001/REC-SVG-20010904/DTD/svg10.dtd">
<svg version="1.0" xmlns="http://www.w3.org/2000/svg"
 width="225.000000pt" height="225.000000pt" viewBox="0 0 225.000000 225.000000"
 preserveAspectRatio="xMidYMid meet">
<metadata>
Created by potrace 1.11, written by Peter Selinger 2001-2013
</metadata>
<g transform="translate(0.000000,225.000000) scale(0.100000,-0.100000)"
fill="#000000" stroke="none">
<path d="M220 2008 c0 -27 111 -635 120 -656 13 -30 52 -48 76 -33 18 10 18
10 -2 11 -12 0 -27 6 -33 13 -6 8 -36 153 -66 323 -31 170 -58 319 -60 332 -5
23 -35 32 -35 10z"/>
<path d="M1020 2018 c0 -2 -18 -97 -39 -213 -27 -148 -36 -214 -29 -223 6 -7
13 -11 15 -9 2 3 83 432 83 444 0 4 -30 4 -30 1z"/>
<path d="M1301 1994 c-20 -26 -21 -38 -21 -324 0 -286 1 -298 21 -324 l20 -26
212 2 212 2 -196 6 c-145 4 -200 9 -212 19 -15 12 -17 48 -17 330 0 233 3 320
12 329 8 8 9 12 1 12 -6 0 -21 -12 -32 -26z"/>
<path d="M1440 1901 c0 -7 49 -11 150 -11 160 0 184 -5 227 -52 28 -31 43 -88
43 -168 0 -88 -16 -138 -55 -177 -38 -38 -36 -41 11 -13 53 33 74 90 74 201 0
115 -19 164 -76 200 -36 22 -50 24 -206 27 -116 3 -168 0 -168 -7z"/>
<path d="M546 1746 c-53 -85 -96 -159 -96 -165 0 -25 18 -6 66 72 28 45 74
119 103 165 32 52 46 82 37 82 -7 0 -57 -69 -110 -154z"/>
<path d="M698 1718 c-7 -19 216 -381 244 -397 16 -9 32 -11 44 -6 18 7 17 8
-4 14 -18 5 -55 58 -143 201 -65 107 -123 196 -128 198 -5 2 -11 -3 -13 -10z"/>
<path d="M1758 1333 c6 -2 18 -2 25 0 6 3 1 5 -13 5 -14 0 -19 -2 -12 -5z"/>
<path d="M852 790 c5 -22 178 -28 178 -6 0 11 -19 15 -90 18 -76 2 -90 1 -88
-12z"/>
<path d="M1353 803 c-65 -3 -83 -7 -83 -18 0 -12 16 -15 78 -15 47 0 83 5 90
12 13 13 16 29 5 26 -5 -1 -45 -4 -90 -5z"/>
<path d="M414 765 c-7 -19 -14 -40 -14 -47 1 -7 7 2 15 20 10 24 20 32 39 32
21 0 27 -8 46 -66 12 -36 24 -64 26 -61 2 2 -8 38 -22 80 -23 68 -29 77 -50
77 -19 0 -29 -8 -40 -35z"/>
<path d="M360 425 c0 -12 17 -15 90 -15 73 0 90 3 90 15 0 12 -17 15 -90 15
-73 0 -90 -3 -90 -15z"/>
<path d="M140 293 c0 -5 6 -17 13 -26 10 -15 27 -17 107 -15 75 2 95 6 98 18
2 13 -12 15 -93 12 -64 -2 -101 1 -111 9 -8 6 -14 7 -14 2z"/>
<path d="M542 270 c3 -12 24 -16 105 -18 89 -2 103 0 111 15 9 17 2 18 -104
18 -96 0 -114 -2 -112 -15z"/>
<path d="M1030 279 c0 -22 36 -30 126 -27 78 2 99 6 102 18 2 13 -16 15 -113
15 -63 0 -115 -3 -115 -6z"/>
<path d="M1552 270 c5 -23 571 -23 576 0 2 13 -35 15 -288 15 -253 0 -290 -2
-288 -15z"/>
</g>
</svg>
